<mxfile host="app.diagrams.net" modified="2023-10-25T12:59:50.215Z" agent="Mozilla/5.0 (Windows NT 10.0; Win64; x64) AppleWebKit/537.36 (KHTML, like Gecko) Chrome/118.0.0.0 Safari/537.36 Edg/118.0.2088.46" etag="RPdo9T7SFUQ7joB_bIyC" version="22.0.8" type="github">
  <diagram id="prtHgNgQTEPvFCAcTncT" name="Page-1">
    <mxGraphModel dx="1384" dy="833" grid="1" gridSize="10" guides="1" tooltips="1" connect="1" arrows="1" fold="1" page="1" pageScale="1" pageWidth="827" pageHeight="1169" math="0" shadow="0">
      <root>
        <mxCell id="0" />
        <mxCell id="1" parent="0" />
        <mxCell id="dNxyNK7c78bLwvsdeMH5-11" value="Orgchart" style="swimlane;html=1;startSize=20;horizontal=1;containerType=tree;glass=0;" parent="1" vertex="1">
          <mxGeometry x="41" y="80" width="780" height="740" as="geometry" />
        </mxCell>
        <mxCell id="k8QJsb2WuFW1PN_NVrD4-3" style="edgeStyle=orthogonalEdgeStyle;rounded=0;orthogonalLoop=1;jettySize=auto;html=1;" parent="dNxyNK7c78bLwvsdeMH5-11" source="dNxyNK7c78bLwvsdeMH5-12" target="k8QJsb2WuFW1PN_NVrD4-2" edge="1">
          <mxGeometry relative="1" as="geometry" />
        </mxCell>
        <mxCell id="k8QJsb2WuFW1PN_NVrD4-4" style="edgeStyle=orthogonalEdgeStyle;rounded=0;orthogonalLoop=1;jettySize=auto;html=1;entryX=0.5;entryY=1;entryDx=0;entryDy=0;" parent="dNxyNK7c78bLwvsdeMH5-11" source="k8QJsb2WuFW1PN_NVrD4-1" target="k8QJsb2WuFW1PN_NVrD4-2" edge="1">
          <mxGeometry relative="1" as="geometry" />
        </mxCell>
        <mxCell id="k8QJsb2WuFW1PN_NVrD4-2" value="中国股票市场" style="rounded=0;whiteSpace=wrap;html=1;" parent="dNxyNK7c78bLwvsdeMH5-11" vertex="1">
          <mxGeometry x="329.5" y="30" width="120" height="60" as="geometry" />
        </mxCell>
        <mxCell id="k8QJsb2WuFW1PN_NVrD4-14" value="layer 3 上市交易所" style="swimlane;horizontal=0;whiteSpace=wrap;html=1;" parent="dNxyNK7c78bLwvsdeMH5-11" vertex="1">
          <mxGeometry x="49" y="120" width="681" height="100" as="geometry" />
        </mxCell>
        <UserObject label="上交所" name="Tessa Miller" position="CFO" location="Office 1" email="me@example.com" placeholders="1" link="https://www.draw.io" id="dNxyNK7c78bLwvsdeMH5-12">
          <mxCell style="label;image=https://cdn3.iconfinder.com/data/icons/user-avatars-1/512/users-3-128.png;whiteSpace=wrap;html=1;rounded=0;glass=0;treeMoving=1;treeFolding=1;" parent="k8QJsb2WuFW1PN_NVrD4-14" vertex="1">
            <mxGeometry x="40" y="25" width="180" height="60" as="geometry" />
          </mxCell>
        </UserObject>
        <UserObject label="深交所" name="Tessa Miller" position="CFO" location="Office 1" email="me@example.com" placeholders="1" link="https://www.draw.io" id="k8QJsb2WuFW1PN_NVrD4-1">
          <mxCell style="label;image=https://cdn3.iconfinder.com/data/icons/user-avatars-1/512/users-3-128.png;whiteSpace=wrap;html=1;rounded=0;glass=0;treeMoving=1;treeFolding=1;" parent="k8QJsb2WuFW1PN_NVrD4-14" vertex="1">
            <mxGeometry x="250.5" y="20" width="180" height="70" as="geometry" />
          </mxCell>
        </UserObject>
        <UserObject label="北交所" name="Tessa Miller" position="CFO" location="Office 1" email="me@example.com" placeholders="1" link="https://www.draw.io" id="jgv1FLlxkObRVEoIM8Ph-5">
          <mxCell style="label;image=https://cdn3.iconfinder.com/data/icons/user-avatars-1/512/users-3-128.png;whiteSpace=wrap;html=1;rounded=0;glass=0;treeMoving=1;treeFolding=1;" vertex="1" parent="k8QJsb2WuFW1PN_NVrD4-14">
            <mxGeometry x="450" y="20" width="180" height="70" as="geometry" />
          </mxCell>
        </UserObject>
        <mxCell id="k8QJsb2WuFW1PN_NVrD4-15" value="layer 2 证券代理" style="swimlane;horizontal=0;whiteSpace=wrap;html=1;" parent="dNxyNK7c78bLwvsdeMH5-11" vertex="1">
          <mxGeometry x="29" y="430" width="681" height="150" as="geometry" />
        </mxCell>
        <mxCell id="k8QJsb2WuFW1PN_NVrD4-13" value="中信证券" style="rounded=0;whiteSpace=wrap;html=1;" parent="k8QJsb2WuFW1PN_NVrD4-15" vertex="1">
          <mxGeometry x="70" y="45" width="120" height="60" as="geometry" />
        </mxCell>
        <mxCell id="k8QJsb2WuFW1PN_NVrD4-7" value="银河证券" style="rounded=0;whiteSpace=wrap;html=1;" parent="k8QJsb2WuFW1PN_NVrD4-15" vertex="1">
          <mxGeometry x="270" y="50" width="120" height="60" as="geometry" />
        </mxCell>
        <mxCell id="k8QJsb2WuFW1PN_NVrD4-8" value="华泰证券等" style="rounded=0;whiteSpace=wrap;html=1;" parent="k8QJsb2WuFW1PN_NVrD4-15" vertex="1">
          <mxGeometry x="490" y="45" width="120" height="60" as="geometry" />
        </mxCell>
        <mxCell id="k8QJsb2WuFW1PN_NVrD4-16" value="layer 1 个人或机构" style="swimlane;horizontal=0;whiteSpace=wrap;html=1;startSize=23;" parent="dNxyNK7c78bLwvsdeMH5-11" vertex="1">
          <mxGeometry x="29" y="580" width="681" height="130" as="geometry" />
        </mxCell>
        <mxCell id="k8QJsb2WuFW1PN_NVrD4-9" value="个人上官" style="rounded=0;whiteSpace=wrap;html=1;" parent="k8QJsb2WuFW1PN_NVrD4-16" vertex="1">
          <mxGeometry x="111" y="30" width="120" height="60" as="geometry" />
        </mxCell>
        <mxCell id="k8QJsb2WuFW1PN_NVrD4-10" value="个人amy" style="rounded=0;whiteSpace=wrap;html=1;" parent="k8QJsb2WuFW1PN_NVrD4-16" vertex="1">
          <mxGeometry x="431" y="30" width="120" height="60" as="geometry" />
        </mxCell>
        <mxCell id="k8QJsb2WuFW1PN_NVrD4-22" style="edgeStyle=orthogonalEdgeStyle;rounded=0;orthogonalLoop=1;jettySize=auto;html=1;entryX=0.4;entryY=0.983;entryDx=0;entryDy=0;entryPerimeter=0;" parent="dNxyNK7c78bLwvsdeMH5-11" source="k8QJsb2WuFW1PN_NVrD4-9" target="k8QJsb2WuFW1PN_NVrD4-13" edge="1">
          <mxGeometry relative="1" as="geometry" />
        </mxCell>
        <mxCell id="k8QJsb2WuFW1PN_NVrD4-23" style="edgeStyle=orthogonalEdgeStyle;rounded=0;orthogonalLoop=1;jettySize=auto;html=1;entryX=0.5;entryY=1;entryDx=0;entryDy=0;" parent="dNxyNK7c78bLwvsdeMH5-11" source="k8QJsb2WuFW1PN_NVrD4-10" target="k8QJsb2WuFW1PN_NVrD4-8" edge="1">
          <mxGeometry relative="1" as="geometry" />
        </mxCell>
        <mxCell id="jgv1FLlxkObRVEoIM8Ph-14" style="edgeStyle=orthogonalEdgeStyle;rounded=0;orthogonalLoop=1;jettySize=auto;html=1;entryX=0.5;entryY=1;entryDx=0;entryDy=0;" edge="1" parent="dNxyNK7c78bLwvsdeMH5-11" source="jgv1FLlxkObRVEoIM8Ph-1" target="k8QJsb2WuFW1PN_NVrD4-1">
          <mxGeometry relative="1" as="geometry">
            <Array as="points">
              <mxPoint x="179" y="250" />
              <mxPoint x="390" y="250" />
            </Array>
          </mxGeometry>
        </mxCell>
        <mxCell id="jgv1FLlxkObRVEoIM8Ph-15" style="edgeStyle=orthogonalEdgeStyle;rounded=0;orthogonalLoop=1;jettySize=auto;html=1;" edge="1" parent="dNxyNK7c78bLwvsdeMH5-11" source="jgv1FLlxkObRVEoIM8Ph-1" target="dNxyNK7c78bLwvsdeMH5-12">
          <mxGeometry relative="1" as="geometry" />
        </mxCell>
        <mxCell id="jgv1FLlxkObRVEoIM8Ph-1" value="主板" style="rounded=0;whiteSpace=wrap;html=1;" vertex="1" parent="dNxyNK7c78bLwvsdeMH5-11">
          <mxGeometry x="119" y="300" width="120" height="60" as="geometry" />
        </mxCell>
        <mxCell id="jgv1FLlxkObRVEoIM8Ph-13" style="edgeStyle=orthogonalEdgeStyle;rounded=0;orthogonalLoop=1;jettySize=auto;html=1;entryX=0.5;entryY=1;entryDx=0;entryDy=0;" edge="1" parent="dNxyNK7c78bLwvsdeMH5-11" source="jgv1FLlxkObRVEoIM8Ph-2" target="k8QJsb2WuFW1PN_NVrD4-1">
          <mxGeometry relative="1" as="geometry" />
        </mxCell>
        <mxCell id="jgv1FLlxkObRVEoIM8Ph-2" value="中小板" style="rounded=0;whiteSpace=wrap;html=1;" vertex="1" parent="dNxyNK7c78bLwvsdeMH5-11">
          <mxGeometry x="259" y="300" width="120" height="60" as="geometry" />
        </mxCell>
        <mxCell id="jgv1FLlxkObRVEoIM8Ph-12" style="edgeStyle=orthogonalEdgeStyle;rounded=0;orthogonalLoop=1;jettySize=auto;html=1;" edge="1" parent="dNxyNK7c78bLwvsdeMH5-11" source="jgv1FLlxkObRVEoIM8Ph-3" target="k8QJsb2WuFW1PN_NVrD4-1">
          <mxGeometry relative="1" as="geometry" />
        </mxCell>
        <mxCell id="jgv1FLlxkObRVEoIM8Ph-3" value="创业板" style="rounded=0;whiteSpace=wrap;html=1;" vertex="1" parent="dNxyNK7c78bLwvsdeMH5-11">
          <mxGeometry x="389" y="300" width="120" height="60" as="geometry" />
        </mxCell>
        <mxCell id="jgv1FLlxkObRVEoIM8Ph-4" value="新三板" style="rounded=0;whiteSpace=wrap;html=1;" vertex="1" parent="dNxyNK7c78bLwvsdeMH5-11">
          <mxGeometry x="559" y="300" width="120" height="60" as="geometry" />
        </mxCell>
        <mxCell id="jgv1FLlxkObRVEoIM8Ph-6" style="edgeStyle=orthogonalEdgeStyle;rounded=0;orthogonalLoop=1;jettySize=auto;html=1;entryX=0.5;entryY=1;entryDx=0;entryDy=0;" edge="1" parent="dNxyNK7c78bLwvsdeMH5-11" source="dNxyNK7c78bLwvsdeMH5-12" target="k8QJsb2WuFW1PN_NVrD4-2">
          <mxGeometry relative="1" as="geometry">
            <Array as="points">
              <mxPoint x="179" y="110" />
              <mxPoint x="390" y="110" />
            </Array>
          </mxGeometry>
        </mxCell>
        <mxCell id="jgv1FLlxkObRVEoIM8Ph-7" style="edgeStyle=orthogonalEdgeStyle;rounded=0;orthogonalLoop=1;jettySize=auto;html=1;entryX=0.5;entryY=1;entryDx=0;entryDy=0;" edge="1" parent="dNxyNK7c78bLwvsdeMH5-11" source="jgv1FLlxkObRVEoIM8Ph-5" target="k8QJsb2WuFW1PN_NVrD4-2">
          <mxGeometry relative="1" as="geometry">
            <Array as="points">
              <mxPoint x="589" y="110" />
              <mxPoint x="390" y="110" />
            </Array>
          </mxGeometry>
        </mxCell>
        <mxCell id="jgv1FLlxkObRVEoIM8Ph-11" style="edgeStyle=orthogonalEdgeStyle;rounded=0;orthogonalLoop=1;jettySize=auto;html=1;entryX=0.572;entryY=1.029;entryDx=0;entryDy=0;entryPerimeter=0;" edge="1" parent="dNxyNK7c78bLwvsdeMH5-11" source="jgv1FLlxkObRVEoIM8Ph-4" target="jgv1FLlxkObRVEoIM8Ph-5">
          <mxGeometry relative="1" as="geometry" />
        </mxCell>
        <mxCell id="jgv1FLlxkObRVEoIM8Ph-16" value="layer 2.5 板块划分" style="swimlane;horizontal=0;whiteSpace=wrap;html=1;" vertex="1" parent="dNxyNK7c78bLwvsdeMH5-11">
          <mxGeometry x="39" y="220" width="691" height="210" as="geometry" />
        </mxCell>
        <mxCell id="jgv1FLlxkObRVEoIM8Ph-17" value="买卖股票资质" style="rounded=0;whiteSpace=wrap;html=1;" vertex="1" parent="jgv1FLlxkObRVEoIM8Ph-16">
          <mxGeometry x="270" y="160" width="100" height="40" as="geometry" />
        </mxCell>
        <mxCell id="jgv1FLlxkObRVEoIM8Ph-18" style="edgeStyle=orthogonalEdgeStyle;rounded=0;orthogonalLoop=1;jettySize=auto;html=1;" edge="1" parent="dNxyNK7c78bLwvsdeMH5-11" source="k8QJsb2WuFW1PN_NVrD4-13" target="jgv1FLlxkObRVEoIM8Ph-17">
          <mxGeometry relative="1" as="geometry">
            <Array as="points">
              <mxPoint x="159" y="430" />
              <mxPoint x="359" y="430" />
            </Array>
          </mxGeometry>
        </mxCell>
        <mxCell id="jgv1FLlxkObRVEoIM8Ph-19" style="edgeStyle=orthogonalEdgeStyle;rounded=0;orthogonalLoop=1;jettySize=auto;html=1;entryX=0.5;entryY=1;entryDx=0;entryDy=0;" edge="1" parent="dNxyNK7c78bLwvsdeMH5-11" source="k8QJsb2WuFW1PN_NVrD4-7" target="jgv1FLlxkObRVEoIM8Ph-17">
          <mxGeometry relative="1" as="geometry" />
        </mxCell>
        <mxCell id="jgv1FLlxkObRVEoIM8Ph-20" style="edgeStyle=orthogonalEdgeStyle;rounded=0;orthogonalLoop=1;jettySize=auto;html=1;entryX=1;entryY=0.5;entryDx=0;entryDy=0;" edge="1" parent="dNxyNK7c78bLwvsdeMH5-11" source="k8QJsb2WuFW1PN_NVrD4-8" target="jgv1FLlxkObRVEoIM8Ph-17">
          <mxGeometry relative="1" as="geometry" />
        </mxCell>
        <mxCell id="jgv1FLlxkObRVEoIM8Ph-21" style="edgeStyle=orthogonalEdgeStyle;rounded=0;orthogonalLoop=1;jettySize=auto;html=1;entryX=0;entryY=0.25;entryDx=0;entryDy=0;" edge="1" parent="dNxyNK7c78bLwvsdeMH5-11" source="k8QJsb2WuFW1PN_NVrD4-13" target="jgv1FLlxkObRVEoIM8Ph-17">
          <mxGeometry relative="1" as="geometry">
            <Array as="points">
              <mxPoint x="159" y="400" />
              <mxPoint x="309" y="400" />
            </Array>
          </mxGeometry>
        </mxCell>
      </root>
    </mxGraphModel>
  </diagram>
</mxfile>
